<?xml version="1.0" standalone="no"?>
<!DOCTYPE svg PUBLIC "-//W3C//DTD SVG 20010904//EN"
 "http://www.w3.org/TR/2001/REC-SVG-20010904/DTD/svg10.dtd">
<svg version="1.0" xmlns="http://www.w3.org/2000/svg"
 width="225.000000pt" height="225.000000pt" viewBox="0 0 225.000000 225.000000"
 preserveAspectRatio="xMidYMid meet">

<g transform="translate(0.000000,225.000000) scale(0.100000,-0.100000)"
fill="#000000" stroke="none">
<path d="M705 1941 c-44 -20 -60 -41 -80 -105 -7 -22 -68 -201 -135 -396 -209
-609 -202 -589 -195 -628 13 -68 37 -81 345 -181 157 -51 336 -109 398 -129
l114 -37 25 30 c14 17 41 63 60 103 31 64 37 86 41 166 5 101 -7 174 -41 241
-11 22 -21 42 -23 44 -2 2 -25 -16 -51 -39 -44 -39 -148 -98 -200 -114 l-22
-7 -3 230 c-3 192 -1 231 11 231 31 0 161 -72 210 -116 59 -53 58 -54 92 36
44 115 35 279 -21 390 -65 129 -171 211 -344 265 -126 40 -128 41 -181 16z
m65 -821 l0 -260 -40 0 -40 0 0 260 0 260 40 0 40 0 0 -260z"/>
<path d="M1255 1771 c107 -151 136 -338 76 -508 -15 -45 -37 -94 -48 -109
l-21 -28 34 -60 c101 -186 84 -430 -41 -596 l-26 -35 133 -43 c183 -60 238
-57 283 11 8 13 94 255 191 537 138 407 174 522 169 547 -8 45 -48 89 -98 107
-42 16 -563 186 -644 211 l-41 12 33 -46z m468 -403 c-5 -7 -49 -64 -96 -125
-48 -62 -87 -117 -87 -121 0 -5 41 -62 90 -126 50 -65 90 -122 90 -127 0 -5
-19 -9 -43 -9 l-43 0 -90 117 c-49 64 -93 124 -97 133 -7 13 14 47 90 144 l98
126 49 0 c37 0 46 -3 39 -12z"/>
<path d="M1020 1119 l0 -110 30 17 c16 10 49 35 72 55 l43 37 -20 22 c-21 24
-109 90 -119 90 -3 0 -6 -50 -6 -111z"/>
</g>
</svg>
